<svg xmlns="http://www.w3.org/2000/svg" width="192" height="192" style="width:100%;height:100%;transform:translate3d(0,0,0);content-visibility:visible" viewBox="0 0 192 192"><defs><clipPath id="a"><path d="M0 0h192v192H0z"/></clipPath><clipPath id="c"><path d="M0 0h192v192H0z"/></clipPath><clipPath id="b"><path d="M0 0h192v192H0z"/></clipPath></defs><g clip-path="url(#a)"><g clip-path="url(#b)" style="display:block"><g style="display:block"><path fill="none" stroke="#E68E6E" stroke-linecap="round" stroke-linejoin="round" d="M93.722 145.442c-1.273-1.274-26.665-45.805-27.2-46.733 1.116-1.14 10.22-9.746 10.85-9.115 1.66 1.66 13.022 22.427 13.457 21.992 1.063-1.063 17.735-41.96 23.872-53.678.943-1.8 4.622-10.41 5.932-11.72.414-.414 18.086 6.068 18.086 6.077 0 .271-29.785 56.084-36.171 73.645-1.735 4.773-6.67 19.836-7.523 20.69-.467.466-1.154-1.01-1.303-1.158" class="secondary"/><path fill="#E68E6E" d="M93.722 145.442c-1.273-1.274-26.665-45.805-27.2-46.733 1.116-1.14 10.22-9.746 10.85-9.115 1.66 1.66 13.022 22.427 13.457 21.992 1.063-1.063 17.735-41.96 23.872-53.678.943-1.8 4.622-10.41 5.932-11.72.414-.414 18.086 6.068 18.086 6.077 0 .271-29.785 56.084-36.171 73.645-1.735 4.773-6.67 19.836-7.523 20.69-.467.466-1.154-1.01-1.303-1.158" class="secondary"/></g><path fill="none" stroke="#2A306B" stroke-dasharray="52 8" stroke-linecap="round" stroke-linejoin="round" stroke-width="2.003" d="M11.077-23.302C6.15-13.563-18.993 37.873-24.34 50.85" class="primary" style="display:block" transform="translate(129.864 81.5)"/><path fill="none" stroke="#2A306B" stroke-linecap="round" stroke-linejoin="round" stroke-width="2.003" d="M9.065 15.388C6.807 11.852-6.769-11.545-9.065-15.388" class="primary" style="display:block" transform="translate(66.428 132.95)"/><path fill="none" stroke="#2A306B" stroke-linecap="round" stroke-linejoin="round" stroke-width="3" d="M63.664-65.508c2.522 2.715 4.165 7.229 4.328 14.107.181 7.629-.51 97.169-.68 104.139-.209 8.516-1.76 15.64-12.887 16.389-12.144.819-106.664.582-111.899.133-7.077-.606-9.813-8.89-10.017-16.17-.842-30.031-.406-104.598-.5-107.243q0 0 0 0c-.234-6.658 1.529-15.145 10.43-15.391 13.165-.366 105.836.121 113.991.696 2.757.195 5.264 1.218 7.234 3.34" class="primary" style="display:block" transform="translate(96.61 97.476)"/><g opacity=".78" style="display:block"><path fill="none" stroke="#2A306B" stroke-dasharray="279 14" stroke-linecap="round" stroke-linejoin="round" stroke-width="2" d="M38.508 143.373c.217 6.222 2.585 13.218 8.619 13.735 4.507.387 85.889.59 96.344-.115 9.58-.645 10.916-6.78 11.096-14.111.147-6.001.74-83.093.585-89.662-.25-10.548-4.543-14.639-9.955-15.022-2.867-.2-17.865-.39-35.38-.523-17.515-.132-55.5-.28-62.945-.28q0 0 0 0c-7.445 0-8.968 7.615-8.968 12.86 0 3.32.24 39.682.416 65.918" class="primary" opacity="1"/></g><path fill="none" stroke="#2A306B" stroke-linecap="round" stroke-linejoin="round" stroke-width="2.996" d="M-8.899 49.012c-1.273-1.274-26.665-45.805-27.2-46.733 1.116-1.139 10.22-9.746 10.851-9.115 1.66 1.661 13.021 22.427 13.456 21.992 1.063-1.063 17.735-41.96 23.873-53.678.943-1.8 4.622-10.41 5.932-11.72.414-.414 18.086 6.068 18.086 6.077 0 .271-29.786 56.084-36.172 73.645-1.735 4.773-6.67 19.836-7.523 20.69-.467.466-1.154-1.009-1.303-1.158" class="primary" style="display:block" transform="translate(95.62 96.68)"/><g opacity=".72" style="display:block"><path fill="none" stroke="#2A306B" stroke-dasharray="51 7" stroke-linecap="round" stroke-linejoin="round" stroke-width="2.001" d="M149.3 15.294c29.93.35 26.528 24.837 26.584 33.37v29.437" class="primary" opacity="1"/></g><g opacity=".72" style="display:block"><path fill="none" stroke="#2A306B" stroke-dasharray="34 6" stroke-linecap="round" stroke-linejoin="round" stroke-width="2.001" d="M36.004 177.9c-18.243.073-17.85-15.829-17.98-21.813v-29.35" class="primary" opacity="1"/></g></g><g clip-path="url(#c)" style="display:none"><g style="display:none"><path fill="none" class="secondary"/><path class="secondary"/></g><path fill="none" class="primary" style="display:none"/><path fill="none" class="primary" style="display:none"/><path fill="none" class="primary" style="display:none"/><path fill="none" class="primary" style="display:none"/><path fill="none" class="primary" style="display:none"/><path fill="none" class="primary" style="display:none"/><path fill="none" class="primary" style="display:none"/></g></g></svg>